<mxfile host="Electron" modified="2024-03-04T19:21:49.967Z" agent="Mozilla/5.0 (X11; Linux x86_64) AppleWebKit/537.36 (KHTML, like Gecko) draw.io/23.1.5 Chrome/120.0.6099.109 Electron/28.1.0 Safari/537.36" etag="eUBi2B8bOlWmetljPsFg" version="23.1.5" type="device">
  <diagram name="Page-1" id="H_ZzraOqR7gK3ljpmpXr">
    <mxGraphModel dx="1364" dy="843" grid="1" gridSize="10" guides="1" tooltips="1" connect="1" arrows="1" fold="1" page="1" pageScale="1" pageWidth="850" pageHeight="1100" math="0" shadow="0">
      <root>
        <mxCell id="0" />
        <mxCell id="1" parent="0" />
        <mxCell id="rIKiWWHC82eU-teVghNC-7" style="edgeStyle=orthogonalEdgeStyle;rounded=0;orthogonalLoop=1;jettySize=auto;html=1;exitX=0;exitY=0.5;exitDx=0;exitDy=0;exitPerimeter=0;" edge="1" parent="1" source="rIKiWWHC82eU-teVghNC-1" target="rIKiWWHC82eU-teVghNC-2">
          <mxGeometry relative="1" as="geometry" />
        </mxCell>
        <mxCell id="rIKiWWHC82eU-teVghNC-10" style="edgeStyle=orthogonalEdgeStyle;rounded=0;orthogonalLoop=1;jettySize=auto;html=1;exitX=0.5;exitY=1;exitDx=0;exitDy=0;exitPerimeter=0;entryX=1;entryY=0.5;entryDx=0;entryDy=0;startArrow=classic;startFill=1;" edge="1" parent="1" source="rIKiWWHC82eU-teVghNC-1" target="rIKiWWHC82eU-teVghNC-4">
          <mxGeometry relative="1" as="geometry" />
        </mxCell>
        <mxCell id="rIKiWWHC82eU-teVghNC-1" value="" style="fontColor=#0066CC;verticalAlign=top;verticalLabelPosition=bottom;labelPosition=center;align=center;html=1;outlineConnect=0;fillColor=#CCCCCC;strokeColor=#6881B3;gradientColor=none;gradientDirection=north;strokeWidth=2;shape=mxgraph.networks.pc;" vertex="1" parent="1">
          <mxGeometry x="460" y="210" width="100" height="70" as="geometry" />
        </mxCell>
        <mxCell id="rIKiWWHC82eU-teVghNC-9" value="" style="edgeStyle=orthogonalEdgeStyle;rounded=0;orthogonalLoop=1;jettySize=auto;html=1;entryX=0;entryY=0.5;entryDx=0;entryDy=0;startArrow=classic;startFill=1;" edge="1" parent="1" source="rIKiWWHC82eU-teVghNC-2" target="rIKiWWHC82eU-teVghNC-4">
          <mxGeometry relative="1" as="geometry">
            <mxPoint x="229" y="373" as="targetPoint" />
            <Array as="points">
              <mxPoint x="230" y="465" />
            </Array>
          </mxGeometry>
        </mxCell>
        <mxCell id="rIKiWWHC82eU-teVghNC-2" value="" style="sketch=0;outlineConnect=0;fontColor=#232F3E;gradientColor=none;fillColor=#7AA116;strokeColor=none;dashed=0;verticalLabelPosition=bottom;verticalAlign=top;align=center;html=1;fontSize=12;fontStyle=0;aspect=fixed;pointerEvents=1;shape=mxgraph.aws4.iot_thing_industrial_pc;" vertex="1" parent="1">
          <mxGeometry x="190" y="206" width="78" height="78" as="geometry" />
        </mxCell>
        <mxCell id="rIKiWWHC82eU-teVghNC-3" value="&lt;font style=&quot;font-size: 24px;&quot;&gt;Digilent Analog &lt;br&gt;Discovery&lt;/font&gt;" style="text;html=1;align=center;verticalAlign=middle;resizable=0;points=[];autosize=1;strokeColor=none;fillColor=none;" vertex="1" parent="1">
          <mxGeometry x="139" y="120" width="180" height="70" as="geometry" />
        </mxCell>
        <mxCell id="rIKiWWHC82eU-teVghNC-4" value="&lt;span style=&quot;font-size: 24px;&quot;&gt;Platform&lt;/span&gt;" style="rounded=0;whiteSpace=wrap;html=1;" vertex="1" parent="1">
          <mxGeometry x="290" y="430" width="155" height="70" as="geometry" />
        </mxCell>
        <mxCell id="rIKiWWHC82eU-teVghNC-12" value="&lt;span style=&quot;font-size: 20px;&quot;&gt;Transmit&lt;br&gt;&amp;nbsp;executables /&lt;br&gt;receive&lt;br&gt;timestamps&lt;br&gt;&lt;/span&gt;" style="text;html=1;align=center;verticalAlign=middle;whiteSpace=wrap;rounded=0;" vertex="1" parent="1">
          <mxGeometry x="480" y="280" width="200" height="130" as="geometry" />
        </mxCell>
        <mxCell id="rIKiWWHC82eU-teVghNC-15" value="&lt;span style=&quot;font-size: 20px;&quot;&gt;Interrupts /&lt;br&gt;trigger signal&lt;br&gt;&lt;/span&gt;" style="text;html=1;align=center;verticalAlign=middle;whiteSpace=wrap;rounded=0;" vertex="1" parent="1">
          <mxGeometry x="110" y="300" width="120" height="60" as="geometry" />
        </mxCell>
      </root>
    </mxGraphModel>
  </diagram>
</mxfile>
